<svg width="46" height="46" viewBox="0 0 46 46" fill="none" xmlns="http://www.w3.org/2000/svg">
<path fill-rule="evenodd" clip-rule="evenodd" d="M46 23C46 35.7025 35.7025 46 23 46C10.2975 46 0 35.7025 0 23C0 10.2975 10.2975 0 23 0C35.7025 0 46 10.2975 46 23ZM35 30.6389C35 30.827 34.9258 30.9897 34.7773 31.1272C34.6289 31.2646 34.4531 31.3333 34.25 31.3333C34.0469 31.3333 33.8711 31.2646 33.7227 31.1272C33.5742 30.9897 33.5 30.827 33.5 30.6389V21.5026L25.2266 25.3437C24.6016 25.6331 23.8594 25.7778 23 25.7778C22.1406 25.7778 21.3984 25.6331 20.7734 25.3437L11.9141 21.2422C11.3047 20.9528 11 20.6092 11 20.2114C11 19.8135 11.3047 19.4771 11.9141 19.2022L20.7734 15.1007C21.3984 14.8113 22.1406 14.6667 23 14.6667C23.8594 14.6667 24.6016 14.8113 25.2266 15.1007L34.0859 19.2022C34.6172 19.4482 34.9141 19.752 34.9766 20.1137C34.9922 20.1282 35 20.1571 35 20.2005V30.6389ZM25.9766 26.7326L30.5 24.6276V27.6875C30.5 28.3096 29.7695 28.8413 28.3086 29.2825C26.8477 29.7238 25.0781 29.9444 23 29.9444C20.9219 29.9444 19.1523 29.7238 17.6914 29.2825C16.2305 28.8413 15.5 28.3096 15.5 27.6875V24.6276L20.0234 26.7326C20.6484 27.022 21.6406 27.1667 23 27.1667C24.3594 27.1667 25.3516 27.022 25.9766 26.7326Z" fill="white" fill-opacity="0.8"/>
</svg>
