<svg width="14" height="20" viewBox="0 0 14 20" fill="none" xmlns="http://www.w3.org/2000/svg">
<path fill-rule="evenodd" clip-rule="evenodd" d="M8.98632 1.22239C8.05536 0.842358 7.02962 0.737792 6.03773 0.921807C5.04584 1.10582 4.13194 1.57023 3.41065 2.25679L3.26411 2.39627L4.4128 3.53486L4.5593 3.39543C5.04979 2.92862 5.67124 2.61286 6.3457 2.48777C7.02017 2.36267 7.71764 2.4338 8.35067 2.69223C8.9837 2.95065 9.5241 3.38488 9.90411 3.94047C10.2841 4.49605 10.4869 5.14826 10.4869 5.81532V7.70842H0.333008V12.6903C0.333008 16.2616 3.32346 19.1667 6.99967 19.1667C10.6759 19.1667 13.6663 16.2616 13.6663 12.6903V7.70842H12.1279V5.81532C12.1279 4.83432 11.8298 3.87515 11.2709 3.05808C10.712 2.24102 9.91729 1.60243 8.98632 1.22239ZM1.97403 12.6903V9.30262H12.0253V12.6903C12.0253 15.3822 9.77065 17.5725 6.99967 17.5725C4.2287 17.5725 1.97403 15.3822 1.97403 12.6903Z" fill="white"/>
</svg>
