<svg width="14" height="20" viewBox="0 0 14 20" fill="none" xmlns="http://www.w3.org/2000/svg">
<path fill-rule="evenodd" clip-rule="evenodd" d="M6.99967 0.833333C5.63959 0.833333 4.33521 1.35821 3.37349 2.29249C2.41176 3.22678 1.87147 4.49394 1.87147 5.81522V7.70833H0.333008V12.6902C0.333008 16.2615 3.32346 19.1667 6.99967 19.1667C10.6759 19.1667 13.6663 16.2615 13.6663 12.6902V7.70833H12.1279V5.81522C12.1279 4.49394 11.5876 3.22678 10.6259 2.29249C9.66414 1.35821 8.35976 0.833333 6.99967 0.833333ZM4.53387 3.41976C5.18784 2.78445 6.07482 2.42754 6.99967 2.42754C7.92453 2.42754 8.81151 2.78445 9.46548 3.41976C10.1195 4.05508 10.4869 4.91675 10.4869 5.81522V7.70833H3.51249V5.81522C3.51249 4.91675 3.87989 4.05508 4.53387 3.41976ZM1.97403 9.30254H12.0253V12.6902C12.0253 15.3821 9.77062 17.5725 6.99967 17.5725C4.22873 17.5725 1.97403 15.3821 1.97403 12.6902V9.30254Z" fill="white"/>
</svg>
