<svg width="46" height="46" viewBox="0 0 46 46" fill="none" xmlns="http://www.w3.org/2000/svg">
<path fill-rule="evenodd" clip-rule="evenodd" d="M23 46C35.7025 46 46 35.7025 46 23C46 10.2975 35.7025 0 23 0C10.2975 0 0 10.2975 0 23C0 35.7025 10.2975 46 23 46ZM32.5004 14.0364L31.9519 13.4938V13.4947C31.196 12.7461 29.8545 12.8601 28.9554 13.7485L17.6754 24.9078L16.3088 28.5644C16.2507 28.7138 16.2362 28.8763 16.267 29.0335C16.3581 29.4666 16.8062 29.6837 17.2664 29.5163L20.9312 28.1901L32.2428 17.0005C33.1419 16.1121 33.2562 14.785 32.5004 14.0364ZM20.7933 14.6766C20.6805 14.6304 20.5597 14.6066 20.4376 14.6066H16.7188C15.7325 14.6066 14.7866 14.9942 14.0892 15.684C13.3918 16.3739 13 17.3096 13 18.2853V29.3213C13 30.297 13.3918 31.2327 14.0892 31.9225C14.7866 32.6124 15.7325 33 16.7188 33H27.8751C28.8614 33 29.8073 32.6124 30.5047 31.9225C31.2021 31.2327 31.5939 30.297 31.5939 29.3213V25.6426C31.5939 25.3987 31.496 25.1648 31.3216 24.9923C31.1473 24.8199 30.9108 24.723 30.6642 24.723C30.4177 24.723 30.1812 24.8199 30.0068 24.9923C29.8325 25.1648 29.7345 25.3987 29.7345 25.6426V29.3213C29.7345 29.8091 29.5386 30.277 29.1899 30.6219C28.8412 30.9669 28.3683 31.1607 27.8751 31.1607H16.7188C16.2256 31.1607 15.7527 30.9669 15.404 30.6219C15.0553 30.277 14.8594 29.8091 14.8594 29.3213V18.2853C14.8594 17.7974 15.0553 17.3296 15.404 16.9847C15.7527 16.6397 16.2256 16.4459 16.7188 16.4459H20.4376C20.5597 16.4459 20.6805 16.4221 20.7933 16.3759C20.9061 16.3297 21.0086 16.262 21.095 16.1766C21.1813 16.0912 21.2498 15.9898 21.2965 15.8782C21.3432 15.7666 21.3673 15.647 21.3673 15.5263C21.3673 15.4055 21.3432 15.2859 21.2965 15.1743C21.2498 15.0627 21.1813 14.9613 21.095 14.8759C21.0086 14.7905 20.9061 14.7228 20.7933 14.6766Z" fill="white" fill-opacity="0.8"/>
</svg>
