<svg xmlns="http://www.w3.org/2000/svg" viewbox="0 0 4270 1853" width="4270" height="1853" fill="none">
    <path d="M559.405-600.672c20.922 14.893-350.153 1466.82-350.153 1466.82l834.468 608.292s-810.457 353.73-818.149 346.29c-7.685-7.35-516.249-1872.275-508.734-1872.444 7.524-.078 637.804-694.864 842.568-548.958z" fill="#859CD8" />
    <path d="M599.502-601.753c20.726 14.73-354.526 1457.071-354.518 1457.161.009.09 825.266 608.892 825.266 608.892s-807.172 351.96-814.929 344.81c-7.757-7.16-512.564-1877.438-499.662-1876.302 7.413.658 641.22-678.946 843.843-534.561z" fill="#859DD8" />
    <path d="M639.598-602.834c20.529 14.567-358.899 1447.323-358.881 1447.503.017.18 816.063 609.501 816.063 609.501s-803.789 350.27-811.709 343.31c-7.92-6.96-509.141-1882.475-490.688-1880.232 7.438.927 644.823-662.955 845.215-520.082z" fill="#859ED8" />
    <path d="M679.883-603.843c20.25 14.503-363.272 1437.576-363.336 1437.854-.065.278 806.863 610.099 806.863 610.099s-800.408 348.59-808.59 341.75c-8.082-6.77-504.154-1874.876-481.616-1884.091 7.507-.259 648.337-646.955 846.679-505.612z" fill="#859FD8" />
    <path d="M720.159-604.94c20.053 14.341-367.645 1427.828-367.701 1428.196-.056.368 797.582 610.704 797.582 610.704s-797.135 346.84-805.38 340.27c-8.246-6.57-500.159-1875.8-472.644-1888.028 7.597-.267 651.941-630.963 848.143-491.142z" fill="#86A0D7" />
    <path d="M760.536-605.956c19.856 14.177-372.018 1418.079-372.065 1418.537-.047.458 788.379 611.309 788.379 611.309s-793.752 345.15-802.16 338.78c-8.408-6.37-496.154-1876.633-463.572-1891.883 7.49-.438 655.357-615.044 849.418-476.743z" fill="#86A1D7" />
    <path d="M800.901-607.066C820.56-593.052 424.51 801.264 424.472 801.812c-.039.549 779.178 611.908 779.178 611.908s-790.37 343.47-798.941 337.3c-8.571-6.18-492.15-1877.469-454.59-1895.732 7.58-.447 658.862-599.134 850.782-462.354z" fill="#86A2D7" />
    <path d="M841.455-608.099c19.373 13.86-380.763 1398.583-380.883 1399.229-.022.728 769.978 612.51 769.978 612.51s-786.998 341.7-795.723 335.81C426.093 1733.47-53.319-138.849-10.79-160.215c7.571-.537 662.367-583.224 852.245-447.884z" fill="#86A3D7" />
    <path d="M882.003-609.223c19.176 13.698-385.136 1388.835-385.248 1389.571-.112.737 760.785 613.102 760.785 613.102s-783.714 340.03-792.611 334.25c-8.896-5.78-484.14-1879.131-436.536-1903.428 7.571-.537 665.881-567.224 853.61-433.495z" fill="#86A4D7" />
    <path d="M922.558-610.255c18.978 13.535-389.51 1379.086-389.613 1379.913-.094.916 751.585 613.712 751.585 613.712s-780.333 338.34-789.393 332.76c-9.051-5.5-480.145-1880.059-427.572-1907.459 7.662-.545 669.494-551.143 854.993-418.926z" fill="#86A5D7" />
    <path d="M963.293-611.308C982.075-597.935 569.321 758.04 569.227 758.956c-.086 1.006 742.293 614.314 742.293 614.314s-776.96 336.58-786.173 331.28c-9.214-5.3-476.141-1880.89-418.501-1911.311 7.653-.636 673-535.234 856.447-404.547z" fill="#86A6D6" />
    <path d="M1004.03-612.358c18.58 13.21-398.35 1359.599-398.436 1360.606-.077 1.096 733.096 614.912 733.096 614.912s-773.581 334.9-782.958 329.8c-9.377-5.1-472.145-1881.817-409.527-1915.251 7.653-.635 676.513-519.233 857.825-390.067z" fill="#87A7D6" />
    <path d="M1044.85-613.416c18.3 13.055-402.722 1349.761-402.791 1350.947-.069 1.186 723.901 615.519 723.901 615.519s-770.296 333.22-779.745 328.3c-9.54-4.9-468.141-1882.641-400.456-1919.096 7.546-.807 679.929-503.315 859.091-375.67z" fill="#87A8D6" />
    <path d="M1085.68-614.479c18.1 12.893-407.104 1340.013-407.164 1341.289-.15 1.285 714.694 616.12 714.694 616.12s-766.917 331.44-776.619 326.74c-9.702-4.71-464.046-1883.49-391.384-1922.958 7.644-.725 683.533-487.323 860.473-361.191z" fill="#87A9D6" />
    <path d="M1126.68-615.553c17.91 12.73-411.471 1330.265-411.613 1331.64-.142 1.374 705.503 616.713 705.503 616.713s-763.537 329.86-773.402 325.35c-9.865-4.51-460.05-1884.412-382.411-1926.893 7.636-.815 687.039-471.413 861.923-346.81z" fill="#87AAD6" />
    <path d="M1167.69-616.539c17.71 12.566-415.842 1320.516-415.975 1321.981-.133 1.464 696.305 617.318 696.305 617.318s-760.257 328.09-770.195 323.77c-10.027-4.31-456.136-1885.236-373.429-1930.738 7.628-.905 690.553-455.414 863.294-332.331z" fill="#87ABD6" />
    <path d="M1208.8-617.534c17.42 12.412-420.219 1310.768-420.344 1312.323-.125 1.554 687.104 617.921 687.104 617.921s-756.884 326.32-766.976 322.28c-10.092-4.03-452.222-1886.058-364.546-1934.663 7.717-.914 694.152-439.512 864.762-317.861z" fill="#87ACD5" />
    <path d="M1249.99-618.538c17.22 12.25-424.59 1301.02-424.796 1302.673-.116 1.645 677.816 618.525 677.816 618.525s-753.505 324.64-763.769 320.71c-10.255-3.83-448.037-1886.908-355.384-1938.526 7.709-1.003 697.663-423.512 866.133-303.382z" fill="#87ADD5" />
    <path d="M1291.18-619.542c17.03 12.087-428.96 1291.273-429.158 1293.015-.197 1.743 668.618 619.127 668.618 619.127s-750.126 322.96-760.552 319.23c-10.418-3.64-444.123-1887.739-346.403-1942.379 7.7-1.093 701.165-407.602 867.495-288.993z" fill="#88AED5" />
    <path d="M1332.47-620.554C1349.3-608.63 899.129 660.97 898.94 662.803c-.189 1.833 659.41 619.727 659.41 619.727s-746.837 321.19-757.417 317.75c-10.581-3.44-440.028-1888.577-337.331-1946.23 7.7-1.093 704.678-391.602 868.868-274.604z" fill="#88AFD5" />
    <path d="M1373.85-621.486c16.55 11.86-437.801 1271.784-437.892 1273.699-.172 2.012 650.212 620.327 650.212 620.327s-743.458 319.51-754.201 316.27c-10.743-3.25-436.033-1889.506-328.358-1950.171 7.692-1.183 708.189-375.692 870.239-260.125z" fill="#88B0D5" />
    <path d="M1415.32-622.425c16.35 11.697-442.174 1262.037-442.346 1264.049-.172 2.013 641.016 620.926 641.016 620.926s-740.081 317.83-750.996 314.69c-10.915-3.13-432.118-1890.324-319.376-1954.01 7.781-1.192 711.702-359.692 871.702-245.655z" fill="#88B1D5" />
    <path d="M1456.79-623.363c16.16 11.534-446.54 1252.288-446.71 1254.39-.15 2.193 631.82 621.533 631.82 621.533s-736.711 316.06-747.78 313.2c-11.069-2.85-428.032-1891.257-310.313-1957.956 7.692-1.183 715.223-343.602 872.983-231.167z" fill="#88B2D5" />
    <path d="M1495.48-623.948c15.96 11.372-450.92 1242.54-451.07 1244.733-.24 2.291 622.62 622.125 622.62 622.125s-733.423 314.39-744.565 311.73c-11.231-2.66-424.027-1892.097-301.331-1961.809 7.683-1.274 718.636-327.684 874.346-216.779z" fill="#88B3D4" />
    <path d="M1532.56-624.29c15.68 11.217-455.29 1232.792-455.52 1235.083-.23 2.381 613.33 622.737 613.33 622.737s-730.046 312.71-741.441 310.25c-11.395-2.46-430.648-1915.968-292.268-1965.753 7.465-2.614 722.329-311.701 875.899-202.317z" fill="#89B4D4" />
    <path d="M1568.03-624.478c15.47 11.055-459.67 1223.044-459.89 1225.425-.22 2.471 604.13 623.343 604.13 623.343s-726.665 311.02-738.124 308.84c-11.557-2.26-426.973-1917.405-283.286-1969.599 7.358-2.785 725.74-295.872 877.17-188.009z" fill="#89B5D4" />
    <path d="M1603.59-624.585c15.28 10.892-464.05 1213.206-464.26 1215.767-.21 2.561 594.93 623.938 594.93 623.938s-723.29 309.25-735.007 307.19c-11.72-2.07-423.191-1918.672-274.214-1973.455 7.456-2.703 729.351-279.791 878.551-173.44z" fill="#89B6D4" />
    <path d="M1639.25-624.61c15.08 10.728-468.42 1203.458-468.62 1206.108-.2 2.651 585.73 624.542 585.73 624.542s-720 307.58-731.79 305.7c-11.79-1.79-419.518-1920.107-265.244-1977.389 7.367-2.695 732.764-263.873 879.924-158.961z" fill="#89B7D4" />
    <path d="M1675-624.644c14.79 10.574-472.79 1193.71-473.07 1196.549-.19 2.74 576.53 625.135 576.53 625.135s-716.63 305.81-728.57 304.22c-11.95-1.59-415.828-1921.363-256.182-1981.332 7.358-2.785 736.282-247.872 881.292-144.572z" fill="#89B8D4" />
    <path d="M1710.77-624.499c14.6 10.412-477.17 1183.962-477.43 1186.891-.28 2.839 567.33 625.738 567.33 625.738s-713.25 304.13-725.45 302.74c-12.11-1.39-412.043-1922.628-247.197-1985.177 7.44-2.883 739.877-231.971 882.747-130.192z" fill="#89B9D3" />
    <path d="M1746.73-624.188c14.4 10.249-481.54 1174.214-481.8 1177.233-.26 2.929 558.14 626.335 558.14 626.335s-709.96 302.46-722.24 301.17c-12.28-1.19-408.263-1923.895-238.217-1989.025 7.35-2.875 743.297-216.052 884.117-115.713z" fill="#89BAD3" />
    <path d="M1782.61-623.782c14.21 10.086-486 1164.474-486.25 1167.583-.25 3.109 548.85 626.949 548.85 626.949s-706.59 300.68-719.03 299.68c-12.43-1-404.468-1925.072-229.15-1992.97 7.53-2.892 746.99-200.069 885.58-101.242z" fill="#8ABBD3" />
    <path d="M1818.7-623.12c13.92 9.932-490.37 1154.725-490.61 1157.924-.25 3.199 539.65 627.546 539.65 627.546s-703.22 299-715.82 298.2c-12.59-.8-400.675-1926.248-220.165-1996.817 7.521-2.982 750.495-184.159 886.945-86.853z" fill="#8ABCD3" />
    <path d="M1854.8-622.279c13.73 9.769-494.74 1144.977-494.97 1148.266-.24 3.289 530.45 628.153 530.45 628.153s-699.83 297.31-712.6 296.71c-12.76-.61-396.886-1927.426-211.103-2000.763 7.439-2.884 753.923-168.061 888.223-72.366z" fill="#8ABDD3" />
    <path d="M1891.04-620.998c13.53 9.606-499.12 1135.23-499.34 1138.608-.32 3.387 521.25 628.75 521.25 628.75s-696.55 295.55-709.47 295.24c-12.92-.41-393.088-1928.515-202.12-2004.612 7.52-2.982 757.52-152.16 889.68-57.986z" fill="#8ABED3" />
    <path d="M1927.42-619.188c13.33 9.443-503.49 1125.482-503.8 1128.959-.3 3.477 512.05 629.349 512.05 629.349s-693.17 293.87-706.25 293.66c-13.09-.21-389.304-1929.685-193.06-2008.461 7.42-3.064 760.94-136.242 891.06-43.507z" fill="#8ABFD3" />
    <path d="M1963.86-616.746c13.04 9.289-507.87 1115.734-508.16 1119.301-.3 3.567 502.85 629.945 502.85 629.945s-689.79 292.2-703.04 292.18c-13.25-.01-385.405-1930.691-184.08-2012.398 7.51-3.072 764.54-120.25 892.43-29.028z" fill="#8AC0D2" />
    <path d="M2000.47-613.414c12.85 9.216-512.24 1105.985-512.52 1109.642-.29 3.657 493.65 630.552 493.65 630.552s-686.42 290.42-699.82 290.69c-13.41.27-381.518-1931.787-175.1-2016.245 7.51-3.072 768.04-104.34 893.79-14.639z" fill="#8AC1D2" />
    <path d="M2037.29-608.83c12.66 9.053-516.61 1096.236-516.98 1099.992-.28 3.747 484.37 631.158 484.37 631.158s-683.13 288.75-696.61 289.21c-13.57.47-377.706-1932.785-166.04-2020.192 7.52-3.072 771.56-88.34 895.26-.168z" fill="#8BC2D2" />
    <path d="M2074.33-602.996c12.45 8.891-520.99 1086.489-521.35 1090.334-.36 3.846 475.17 631.762 475.17 631.762s-679.75 287.06-693.49 287.64c-13.73.67-373.81-1933.789-157.06-2024.038 7.6-3.17 775.17-72.348 896.73 14.302z" fill="#8BC3D2" />
    <path d="M2111.4-596.713c12.26 8.727-525.36 1076.65-525.71 1080.675-.35 3.936 465.97 632.358 465.97 632.358s-676.38 285.29-690.27 286.16c-13.9.86-369.907-1934.704-148-2027.983 7.52-3.072 778.59-56.34 898.01 28.79z" fill="#8BC4D2" />
    <path d="M2148.49-590.249c11.98 8.573-529.74 1066.903-530.16 1071.026-.43 4.124 456.77 632.963 456.77 632.963s-673.09 283.62-687.06 284.67c-13.96 1.05-366-1935.619-139.01-2031.829 7.68-3.269 782.19-40.439 899.46 43.17z" fill="#8BC5D2" />
    <path d="M2185.77-583.803c11.77 8.411-534.21 1057.163-534.53 1061.368-.33 4.205 447.57 633.565 447.57 633.565s-669.71 281.93-683.84 283.18c-14.13 1.25-362.09-1936.53-129.94-2035.68 7.49-3.342 785.6-24.52 900.74 57.567z" fill="#8BC6D1" />
    <path d="M2223.03-577.45c11.58 8.248-538.58 1047.415-538.9 1051.71-.32 4.205 438.38 634.16 438.38 634.16s-666.35 280.17-680.64 281.61c-14.29 1.45-358.09-1937.453-120.96-2039.616 7.5-3.162 789.13-8.341 902.12 72.136z" fill="#8BC7D1" />
    <path d="M2260.39-571.011c11.38 8.085-542.95 1037.666-543.26 1042.051-.41 4.304 429.09 634.77 429.09 634.77s-662.97 278.48-677.51 280.14c-14.54 1.65-354.18-1938.285-111.98-2043.47 7.67-3.268 792.81 7.553 903.66 86.509z" fill="#8BC8D1" />
    <path d="M2297.75-564.571c11.1 7.931-547.32 1027.919-547.71 1032.402-.39 4.484 419.89 635.459 419.89 635.459s-659.67 276.81-674.29 278.65c-14.61 1.84-350.17-1939.112-102.92-2047.408 7.76-3.367 796.32 23.373 905.03 100.897z" fill="#8CC9D1" />
    <path d="M2335.29-558.152c10.9 7.768-551.69 1018.171-552.07 1022.744-.38 4.573 410.69 636.058 410.69 636.058s-656.3 275.04-671.07 277.17c-14.77 2.13-346.26-1939.941-93.94-2051.258 7.66-3.449 799.73 39.291 906.39 115.286z" fill="#8CCAD1" />
    <path d="M2372.74-551.723c10.71 7.605-556.06 1008.422-556.44 1013.085-.37 4.664 401.5 636.658 401.5 636.658s-652.92 273.36-667.86 275.69c-14.93 2.32-342.25-1940.688-84.86-2055.117 7.56-3.53 803.23 55.201 907.66 129.684z" fill="#8CCBD1" />
    <path d="M2410.38-545.311c10.5 7.442-560.44 998.674-560.9 1003.436-.36 4.753 392.3 637.265 392.3 637.265s-649.54 271.67-664.65 274.1c-15.1 2.52-338.24-1941.424-75.89-2059.045 7.66-3.449 806.75 71.291 909.14 144.244z" fill="#8CCBD1" />
    <path d="M2448.01-538.899c10.22 7.288-564.81 988.926-565.26 993.777-.45 4.852 383.1 637.862 383.1 637.862s-646.26 269.91-661.52 272.63c-15.26 2.72-334.23-1942.17-66.83-2062.902 7.65-3.539 810.27 87.201 910.51 158.633z" fill="#8CCCD0" />
    <path d="M2485.73-532.498c10.03 7.216-569.27 979.187-569.71 984.128-.44 4.942 373.9 638.46 373.9 638.46s-642.88 268.23-658.31 271.15c-15.42 2.91-330.13-1943.014-57.84-2066.841 7.74-3.547 813.86 103.192 911.96 173.103z" fill="#8CCDD0" />
    <path d="M2523.45-526.093c9.82 6.963-573.56 969.431-573.99 974.462-.43 5.031 364.61 639.071 364.61 639.071s-639.5 266.55-655.09 269.66c-15.58 3.11-326.19-1943.567-48.77-2070.693 7.64-3.629 817.28 119.111 913.24 187.5z" fill="#8CCED0" />
    <path d="M2561.26-519.696c9.63 6.799-577.93 959.681-578.44 964.812-.51 5.13 355.41 639.674 355.41 639.674s-636.13 264.77-651.88 268.08c-15.75 3.31-322.08-1944.227-39.79-2074.538 7.73-3.637 820.88 135.103 914.7 201.972z" fill="#8DCFD0" />
    <path d="M2599.07-513.303c9.34 6.645-582.39 949.942-582.8 955.153-.42 5.212 346.21 640.27 346.21 640.27s-632.84 263.11-648.66 266.6c-15.91 3.51-318.06-1944.88-30.82-2078.473 7.73-3.637 824.39 151.102 916.07 216.45z" fill="#8DD0D0" />
    <path d="M2637.06-506.925c9.16 6.572-586.77 940.104-587.17 945.495-.49 5.31 337.02 640.87 337.02 640.87s-629.47 261.43-645.45 265.12c-15.98 3.69-313.94-1945.547-21.75-2082.333 7.55-3.62 827.73 167.029 917.35 230.848z" fill="#8DD1D0" />
    <path d="M2674.97-500.54c8.95 6.409-591.15 930.356-591.63 935.845-.47 5.49 327.82 641.475 327.82 641.475s-626.09 259.65-642.24 263.54c-16.15 3.89-309.82-1946.118-12.77-2086.179 7.73-3.637 831.42 183.013 918.82 245.319z" fill="#8DD2CF" />
    <path d="M2713.05-494.17c8.76 6.246-595.52 920.607-595.99 926.187-.48 5.49 318.61 642.073 318.61 642.073s-622.8 257.98-639.1 262.16c-16.3 4.17-305.7-1946.695-3.7-2090.127 7.63-3.719 834.83 198.93 920.18 259.707z" fill="#8DD3CF" />
    <path d="M2751.04-487.792c8.47 6.093-599.9 910.86-600.36 916.53-.46 5.669 309.42 642.672 309.42 642.672s-619.42 256.3-635.89 260.58c-16.48 4.29-301.68-1947.252 5.26-2094.058 7.74-3.637 838.45 215.012 921.57 274.276z" fill="#8DD4CF" />
    <path d="M2789.21-481.431c8.27 5.93-604.27 901.112-604.72 906.871-.45 5.76 300.13 643.28 300.13 643.28s-616.05 254.53-632.68 259.1c-16.63 4.57-297.46-1947.747 14.34-2097.916 7.72-3.727 841.86 230.931 922.93 288.665z" fill="#8DD5CF" />
    <path d="M2827.38-475.071c8.08 5.767-608.64 891.364-609.17 897.222-.53 5.858 290.93 643.879 290.93 643.879s-612.67 252.85-629.46 257.62c-16.79 4.76-293.34-1948.323 23.32-2101.766 7.8-3.826 845.46 246.832 924.38 303.045z" fill="#8ED6CF" />
    <path d="M2865.55-468.71c7.88 5.605-613.01 881.616-613.53 887.564-.53 5.948 281.72 644.486 281.72 644.486s-609.38 251.17-626.33 256.13c-16.95 4.97-289.21-1948.798 32.3-2105.695 7.89-3.834 849.06 262.823 925.84 317.515z" fill="#8ED7CF" />
    <path d="M2903.81-462.358c7.6 5.45-617.38 871.868-617.9 877.906-.51 6.038 272.53 645.082 272.53 645.082s-606.01 249.4-623.12 254.56c-17.12 5.16-284.99-1949.289 41.36-2109.551 7.81-3.825 852.49 278.832 927.13 332.003z" fill="#8ED8CE" />
    <path d="M2942.16-456.013c7.4 5.287-621.76 862.119-622.35 868.256-.51 6.127 263.33 645.687 263.33 645.687s-602.63 247.71-619.91 253.07c-17.28 5.36-280.85-1949.681 50.34-2113.486 7.89-3.834 856.09 294.823 928.59 346.473z" fill="#8ED9CE" />
    <path d="M2980.52-449.671c7.2 5.124-626.22 852.379-626.72 858.597-.5 6.218 254.13 646.284 254.13 646.284s-599.25 246.04-616.69 251.59c-17.44 5.56-276.63-1950.083 59.41-2117.342 7.79-3.916 859.5 310.742 929.87 360.871z" fill="#8EDACE" />
    <path d="M3018.87-443.327c7 4.961-630.6 842.631-631.09 848.939-.49 6.307 244.94 646.888 244.94 646.888s-595.97 244.27-613.48 250.1c-17.6 5.76-272.41-1950.573 68.39-2121.187 7.79-4.006 863.01 326.652 931.24 375.26z" fill="#8EDBCE" />
    <path d="M3057.31-436.993c6.72 4.807-634.97 832.883-635.45 839.28-.57 6.407 235.65 647.493 235.65 647.493s-592.6 242.59-610.35 248.63c-17.76 6.04-268.18-1950.885 77.45-2125.134 7.88-4.014 866.62 342.643 932.7 389.731z" fill="#8EDCCE" />
    <path d="M3095.75-430.656c6.52 4.645-639.34 823.135-639.91 829.631-.56 6.496 226.45 648.095 226.45 648.095s-589.21 240.91-607.14 247.05c-17.93 6.15-263.95-1951.283 86.44-2128.977 7.96-4.022 870.22 358.635 934.16 404.201z" fill="#8FDDCE" />
    <path d="M3134.28-424.331c6.32 4.482-643.71 813.387-644.27 819.973-.55 6.586 217.25 648.698 217.25 648.698s-585.93 239.14-603.93 245.57c-17.99 6.42-259.71-1951.691 95.41-2132.921 7.97-4.022 873.74 374.635 935.54 418.68z" fill="#8FDECE" />
    <path d="M3172.81-418.002c6.13 4.319-648.09 803.549-648.63 810.315-.55 6.675 208.05 649.297 208.05 649.297s-582.56 237.46-600.71 244.08c-18.16 6.63-255.39-1952.005 104.48-2136.77 7.87-4.103 877.15 390.554 936.81 433.078z" fill="#8FDFCD" />
    <path d="M3211.43-411.687c5.93 4.157-652.46 793.801-653.08 800.666-.63 6.774 198.85 649.891 198.85 649.891s-579.18 235.79-597.5 242.6c-18.31 6.82-251.15-1952.314 113.47-2140.614 7.95-4.202 880.65 406.463 938.26 447.457z" fill="#8FE0CD" />
    <path d="M3250.05-405.368c5.64 4.002-656.84 784.053-657.45 791.007-.61 6.955 189.65 650.491 189.65 650.491s-575.8 234.02-594.37 241.04c-18.48 7.02-246.92-1952.63 122.53-2144.564 7.95-4.112 884.17 422.553 939.64 462.026z" fill="#8FE1CD" />
    <path d="M3288.67-399.049c5.46 3.929-661.21 774.305-661.81 781.349-.6 7.044 180.45 651.1 180.45 651.1s-572.51 232.33-591.16 239.55c-18.64 7.21-242.58-1952.864 131.51-2148.414 7.95-4.203 887.68 438.463 941.01 476.415z" fill="#8FE2CD" />
    <path d="M3327.29-392.731c5.26 3.766-665.58 764.556-666.17 771.69-.6 7.134 171.16 651.701 171.16 651.701s-569.13 230.66-587.94 238.07c-18.81 7.41-238.26-1953.18 140.57-2152.356 7.95-4.202 891.2 454.463 942.38 490.895z" fill="#8FE3CD" />
    <path d="M3366-386.421c5.06 3.603-669.95 754.808-670.63 762.041-.58 7.224 161.97 652.3 161.97 652.3s-565.77 228.89-584.73 236.59c-18.96 7.69-233.93-1953.413 149.56-2156.206 8.03-4.301 894.79 470.364 943.83 505.275z" fill="#90E4CD" />
    <path d="M3404.71-380.112c4.77 3.449-674.42 745.069-675 752.383-.57 7.314 152.77 652.909 152.77 652.909s-562.38 227.2-581.52 235c-19.13 7.81-229.59-1953.636 158.53-2160.136 8.04-4.21 898.32 486.455 945.22 519.844z" fill="#90E5CC" />
    <path d="M3443.43-373.803c4.57 3.286-678.8 735.32-679.37 742.724-.65 7.413 143.57 653.509 143.57 653.509s-559.09 225.53-578.39 233.53c-19.28 8.09-225.26-1953.871 167.6-2163.996 8.03-4.301 901.81 502.274 946.59 534.233z" fill="#90E6CC" />
    <path d="M3482.23-367.503c4.38 3.124-683.17 725.573-683.82 733.075-.65 7.503 134.37 654.108 134.37 654.108s-555.72 223.76-575.17 232.04c-19.45 8.29-220.92-1954.004 176.58-2167.836 8.11-4.399 905.4 518.176 948.04 548.613z" fill="#90E7CC" />
    <path d="M3521.03-361.201c4.18 2.961-687.54 715.825-688.18 723.417-.64 7.592 125.17 654.704 125.17 654.704s-552.35 222.08-571.96 230.56c-19.61 8.49-216.58-1954.235 185.64-2171.782 8.03-4.39 908.74 534.193 949.33 563.101z" fill="#90E8CC" />
    <path d="M3559.83-354.899c3.89 2.806-691.92 706.076-692.55 713.758-.63 7.682 115.88 655.311 115.88 655.311s-548.96 220.4-568.74 229.08c-19.77 8.68-212.15-1954.385 194.63-2175.63 8.1-4.489 912.33 550.094 950.78 577.481z" fill="#90E9CC" />
    <path d="M3598.63-348.599c3.7 2.643-696.29 696.328-696.91 704.1-.71 7.781 106.68 655.919 106.68 655.919s-545.68 218.63-565.53 227.5c-19.94 8.88-207.81-1954.527 203.69-2179.578 8.02-4.39 915.77 566.193 952.07 592.059z" fill="#91EACC" />
    <path d="M3637.43-342.298c3.5 2.48-700.66 686.58-701.36 694.45-.71 7.871 97.48 656.518 97.48 656.518s-542.21 216.94-562.32 226.01c-20.01 9.07-203.37-1954.669 212.67-2183.417 8.11-4.489 919.46 582.085 953.53 606.439z" fill="#91EBCC" />
    <path d="M3676.32-336.006c3.3 2.318-705.03 676.832-705.73 684.793-.7 7.96 88.28 657.113 88.28 657.113s-538.92 215.27-559.18 224.54c-20.27 9.28-198.95-1954.818 221.74-2187.274 8.09-4.579 922.87 598.005 954.89 620.828z" fill="#91ECCB" />
    <path d="M3715.12-329.705c3.01 2.164-709.42 666.994-710.1 675.134-.68 8.141 79.09 657.711 79.09 657.711s-535.64 213.51-555.97 223.06c-20.34 9.46-194.6-1954.87 230.71-2191.212 8.19-4.587 926.48 613.996 956.27 635.307z" fill="#91EDCB" />
    <path d="M3754.01-323.414c2.82 2.001-713.79 657.246-714.55 665.485-.67 8.23 69.89 658.319 69.89 658.319s-532.26 211.82-552.76 221.48c-20.49 9.75-190.16-1954.931 239.69-2195.061 8.19-4.587 929.99 629.996 957.73 649.777z" fill="#91EECB" />
    <path d="M3792.9-317.12c2.62 1.838-718.16 647.498-718.91 655.827-.75 8.329 60.69 658.916 60.69 658.916s-528.89 210.147-549.55 219.997c-20.66 9.85-185.72-1955.078 248.76-2199.004 8.1-4.579 933.41 646.004 959.01 664.264z" fill="#91EFCB" />
    <path d="M3831.79-310.826c2.42 1.675-722.62 637.758-723.28 646.168-.74 8.419 51.4 659.525 51.4 659.525s-525.51 208.373-546.33 218.513c-20.81 10.14-181.18-1955.055 257.74-2202.851 8.18-4.678 937.01 661.905 960.47 678.645z" fill="#91F0CB" />
    <path d="M3870.68-304.533c2.14 1.521-726.99 628.01-727.73 636.518-.73 8.509 42.2 660.126 42.2 660.126s-522.22 206.699-543.2 217.039c-20.98 10.33-176.74-1955.116 266.81-2206.709 8.36-4.691 940.6 677.807 961.92 693.026z" fill="#92F1CB" />
    <path d="M3909.57-298.242c1.95 1.359-731.36 618.262-732.09 626.861-.73 8.598 33 660.725 33 660.725s-518.84 205.016-539.99 215.556c-21.14 10.53-172.3-1955.175 275.79-2210.65 8.36-4.69 944.12 693.811 963.29 707.508z" fill="#92F2CA" />
    <path d="M3948.55-291.958c1.76 1.286-735.74 608.514-736.46 617.203-.71 8.688 23.81 661.326 23.81 661.326s-515.48 203.239-536.78 213.979c-21.31 10.73-167.76-1955.151 284.86-2214.5 8.17-4.68 947.45 709.824 964.57 721.992z" fill="#92F3CA" />
    <path d="M3987.44-285.666c1.56 1.122-740.11 598.765-740.82 607.544-.71 8.778 14.6 661.926 14.6 661.926s-512.09 201.566-533.56 212.496c-21.46 10.92-163.32-1955.21 293.84-2218.44 8.17-4.67 951.05 725.818 965.94 736.474z" fill="#92F4CA" />
    <path d="M4026.33-279.373c1.27.968-744.48 589.017-745.27 597.894-.79 8.877 5.4 662.527 5.4 662.527s-508.8 199.892-530.34 211.012c-21.63 11.12-158.78-1955.188 302.81-2222.28 8.35-4.79 954.65 741.712 967.4 750.847z" fill="#92F5CA" />
    <path d="M4065.31-273.088c1.08.805-748.85 579.269-749.64 588.236-.78 8.967-3.79 663.127-3.79 663.127s-505.43 198.115-527.22 209.535c-21.79 11.32-154.24-1955.164 311.88-2226.23 8.26-4.77 958.07 757.727 968.77 765.332z" fill="#92F6CA" />
    <path d="M4104.21-266.798c.87.643-753.24 569.522-754.01 578.578-.77 9.057-13.08 663.736-13.08 663.736s-502.06 196.434-524.01 207.954c-21.95 11.61-149.7-1955.135 320.86-2230.07 8.43-4.79 961.76 773.71 970.24 779.802z" fill="#92F7CA" />
    <path d="M4143.19-260.513c.68.48-757.61 559.773-758.46 568.929-.77 9.146-22.29 664.336-22.29 664.336s-498.76 194.768-520.79 206.468c-22.11 11.81-145.16-1955.11 329.93-2233.92 8.34-4.88 965.18 789.624 971.61 794.187z" fill="#93F8C9" />
    <path d="M4182.07-254.22c.4.326-761.97 550.025-762.82 559.271-.85 9.245-31.48 664.936-31.48 664.936s-495.39 192.993-517.58 204.983c-22.18 12-140.61-1954.997 338.91-2237.86 8.43-4.88 968.78 805.62 972.97 808.67z" fill="#93F9C9" />
    <path d="M4221.06-247.938c.19.163-766.35 540.277-767.19 549.612-.84 9.335-40.68 665.537-40.68 665.537s-492.02 191.309-514.36 203.499C2876.48 1182.9 2763.3-783.228 3246.8-1071c8.33-4.97 972.12 821.541 974.26 823.062z" fill="#93FAC9" />
    <path d="M3284.23-1079.18c8.42-4.97 988.99 881.608 988.99 881.608l-612 796-212 636.002s-499.34-80.35-521.94-67.96c-22.51 12.39-131.53-1954.862 356.95-2245.65z" fill="#93FBC9" />
</svg>