<svg width="79" height="26" viewBox="0 0 79 26" fill="none" xmlns="http://www.w3.org/2000/svg">
<g clip-path="url(#clip0)">
<path d="M32.2294 17.4463L31.7232 16.0913C31.6389 16.0913 31.5544 16.1759 31.4701 16.1759C31.3014 16.2607 31.0482 16.2607 30.7951 16.3453C27.5047 17.2769 24.1298 17.7004 22.1893 17.8698C21.8519 17.8698 21.5144 17.9544 21.1769 17.9544C20.0801 18.0391 19.1521 18.0391 18.224 17.9544C16.3678 17.8698 14.5961 17.531 13.0773 17.0229C10.715 16.1759 9.36509 14.9055 8.94324 13.7199C8.85887 13.4658 8.77449 13.2118 8.77449 12.9577C8.77449 12.7036 8.85887 12.4495 8.94324 12.1955C9.36509 11.0098 10.715 9.73945 13.0773 8.89254C14.6804 8.38439 16.4522 8.04564 18.224 7.96095C19.1521 7.96095 20.0801 7.87625 21.1769 7.96095C21.5144 7.96095 21.8519 8.04564 22.1893 8.04564C24.0455 8.21502 27.5047 8.63847 30.7951 9.57007C31.0482 9.65475 31.2169 9.73945 31.4701 9.73945C31.5544 9.73945 31.6389 9.82415 31.7232 9.82415L32.2294 8.46909L33.9168 3.72642L34.17 2.87952C33.5793 2.62545 32.82 2.37138 31.8919 2.03261C30.1201 1.43977 28.0952 0.84694 24.9736 0.338796C23.2862 0.0847252 21.5144 -0.0846558 19.7426 -0.0846558C14.8492 3.47719e-05 10.2088 1.10101 6.66524 3.13359C4.72473 4.23456 3.12169 5.58962 2.02489 7.11404C0.674962 8.89254 0 10.9251 0 12.9577C0 14.9903 0.674962 17.0229 2.02489 18.8014C3.12169 20.3258 4.72473 21.6808 6.66524 22.7819C10.2088 24.8144 14.9335 25.9154 19.8269 25.9154C21.5987 25.9154 23.3705 25.746 25.0579 25.4918C28.1797 24.9838 30.2889 24.3909 31.9764 23.7981C32.9044 23.4593 33.6637 23.2053 34.2543 22.9511L34.0012 22.1043L32.2294 17.4463Z" fill="white"/>
<path d="M52.5626 11.6873H25.9016V14.3127H52.5626V11.6873Z" fill="white"/>
<path d="M76.8612 7.114C75.7644 5.58957 74.1613 4.23453 72.2209 3.13355C68.6773 1.10098 63.9526 0 59.0591 0C54.1657 0 49.5252 1.10098 45.8973 3.13355C44.0412 4.23453 42.4382 5.58957 41.3414 7.114C40.9196 7.70684 40.4977 8.38436 40.1602 9.06188H52.0564C52.1408 8.9772 52.3095 8.9772 52.4783 8.89251C54.1657 8.29967 56.3593 7.87622 59.0591 7.87622C61.8433 7.87622 63.9526 8.29967 65.6399 8.89251C68.0023 9.73942 69.3523 11.0098 69.7741 12.1954C69.8586 12.4495 69.9429 12.7036 69.9429 12.9577C69.9429 13.2118 69.8586 13.4658 69.7741 13.7198C69.3523 14.9055 68.0023 16.1759 65.6399 17.0228C63.9526 17.6156 61.759 18.0391 59.0591 18.0391C56.275 18.0391 54.1657 17.6156 52.4783 17.0228C52.3095 16.9381 52.2251 16.9381 52.0564 16.8535H40.2446C40.5821 17.5309 40.9196 18.1238 41.4258 18.8012C42.5226 20.3258 44.1257 21.6807 46.0661 22.7817C49.6097 24.8143 54.3344 25.9154 59.2279 25.9154C64.1213 25.9154 68.7617 24.8143 72.3897 22.7817C74.3301 21.6807 75.8488 20.3258 77.0299 18.8012C78.3799 17.0228 79.0548 14.9902 79.0548 12.9577C78.8861 10.9251 78.1267 8.89251 76.8612 7.114Z" fill="white"/>
</g>
<defs>
<clipPath id="clip0">
<rect width="79" height="26" fill="white"/>
</clipPath>
</defs>
</svg>
