<svg width="46" height="46" viewBox="0 0 46 46" fill="none" xmlns="http://www.w3.org/2000/svg">
<rect width="46" height="46" rx="23" fill="#6100FF"/>
<path d="M34.2726 18.0287C34.2726 18.2802 34.2726 18.5318 34.2726 18.7474C34.2726 26.1865 28.5944 34.7756 18.2444 34.7756C15.046 34.7756 12.0991 33.8412 9.5835 32.2599C10.0147 32.2959 10.4819 32.3318 10.9132 32.3318C13.5366 32.3318 15.9804 31.4334 17.921 29.924C15.4413 29.8881 13.3569 28.2349 12.6741 26.0068C13.0335 26.0787 13.3569 26.1146 13.7522 26.1146C14.2554 26.1146 14.7585 26.0427 15.2257 25.899C12.6382 25.3959 10.6976 23.1318 10.6976 20.4006C10.6976 20.3646 10.6976 20.3646 10.6976 20.3287C11.4522 20.7599 12.3147 21.0115 13.2491 21.0474C11.7397 20.0412 10.7335 18.3162 10.7335 16.3396C10.7335 15.2974 11.021 14.3271 11.4882 13.5006C14.2554 16.9146 18.4241 19.1427 23.096 19.3943C22.9882 18.999 22.9522 18.5318 22.9522 18.1006C22.9522 14.974 25.4679 12.4584 28.5944 12.4584C30.2116 12.4584 31.6851 13.1412 32.6913 14.2193C33.9851 13.9677 35.171 13.5006 36.2851 12.8537C35.8538 14.1834 34.9554 15.2615 33.8054 15.9802C34.9554 15.8365 36.0335 15.549 37.0397 15.0818C36.321 16.2318 35.3866 17.2381 34.2726 18.0287Z" fill="white"/>
</svg>
